<svg width="24" height="25" viewBox="0 0 24 25" fill="none" xmlns="http://www.w3.org/2000/svg">
<path d="M11.05 15.762L9.2 17.612C8.81 18.002 8.19 18.002 7.79 17.622C7.68 17.512 7.57 17.412 7.46 17.302C6.43 16.262 5.5 15.172 4.67 14.032C3.85 12.892 3.19 11.752 2.71 10.622C2.24 9.48201 2 8.39201 2 7.35201C2 6.67201 2.12 6.02201 2.36 5.42201C2.6 4.81201 2.98 4.25201 3.51 3.75201C4.15 3.12201 4.85 2.81201 5.59 2.81201C5.87 2.81201 6.15 2.87201 6.4 2.99201C6.66 3.11201 6.89 3.29201 7.07 3.55201L9.39 6.82201C9.57 7.07201 9.7 7.30201 9.79 7.52201C9.88 7.73201 9.93 7.94201 9.93 8.13201C9.93 8.37201 9.86 8.61201 9.72 8.84201C9.59 9.07201 9.4 9.31201 9.16 9.55201L8.4 10.342C8.29 10.452 8.24 10.582 8.24 10.742C8.24 10.822 8.25 10.892 8.27 10.972C8.3 11.052 8.33 11.112 8.35 11.172C8.53 11.502 8.84 11.932 9.28 12.452C9.73 12.972 10.21 13.502 10.73 14.032C10.83 14.132 10.94 14.232 11.04 14.332C11.44 14.722 11.45 15.362 11.05 15.762Z" fill="#FBFFED"/>
<path d="M21.9701 19.1421C21.9701 19.4221 21.9201 19.7121 21.8201 19.9921C21.7901 20.0721 21.7601 20.1521 21.7201 20.2321C21.5501 20.5921 21.3301 20.9321 21.0401 21.2521C20.5501 21.7921 20.0101 22.1821 19.4001 22.4321C19.3901 22.4321 19.3801 22.442 19.3701 22.442C18.7801 22.682 18.1401 22.8121 17.4501 22.8121C16.4301 22.8121 15.3401 22.5721 14.1901 22.0821C13.0401 21.5921 11.8901 20.9321 10.7501 20.1021C10.3601 19.8121 9.9701 19.5221 9.6001 19.2121L12.8701 15.9421C13.1501 16.1521 13.4001 16.3121 13.6101 16.4221C13.6601 16.4421 13.7201 16.4721 13.7901 16.5021C13.8701 16.5321 13.9501 16.5421 14.0401 16.5421C14.2101 16.5421 14.3401 16.4821 14.4501 16.3721L15.2101 15.6221C15.4601 15.3721 15.7001 15.1821 15.9301 15.0621C16.1601 14.9221 16.3901 14.8521 16.6401 14.8521C16.8301 14.8521 17.0301 14.8921 17.2501 14.9821C17.4701 15.0721 17.7001 15.2021 17.9501 15.3721L21.2601 17.7221C21.5201 17.9021 21.7001 18.1121 21.8101 18.3621C21.9101 18.6121 21.9701 18.8621 21.9701 19.1421Z" fill="#FBFFED"/>
</svg>
