<svg width="97" height="60" viewBox="0 0 97 60" fill="none" xmlns="http://www.w3.org/2000/svg">
<path fill-rule="evenodd" clip-rule="evenodd" d="M68.9988 55.6866C77.4506 56.102 86.1032 55.9103 94.1171 59.0044C94.5948 59.187 95.1312 58.9518 95.3175 58.4742C95.5001 57.9965 95.2649 57.4601 94.7873 57.2738C86.586 54.1082 77.7379 54.258 69.0896 53.8339C68.5784 53.8063 68.1418 54.2035 68.1179 54.7149C68.0903 55.2261 68.4875 55.659 68.9988 55.6866Z" fill="#C4EF17"/>
<path fill-rule="evenodd" clip-rule="evenodd" d="M68.5456 43.3892C71.2424 41.0296 74.1649 39.2845 77.6651 38.4709C78.1651 38.355 78.4743 37.8563 78.3607 37.3579C78.2433 36.8593 77.7428 36.5489 77.2465 36.6648C73.4403 37.5491 70.2585 39.4291 67.3266 41.9931C66.9398 42.3299 66.8991 42.9162 67.2382 43.3016C67.5736 43.6865 68.1625 43.7261 68.5456 43.3892Z" fill="#C4EF17"/>
<path fill-rule="evenodd" clip-rule="evenodd" d="M61.8742 16.7253C63.1864 12.6123 65.6478 9.43065 69.3545 7.18129C69.7915 6.91583 69.9319 6.34506 69.6646 5.90766C69.401 5.47035 68.8294 5.33065 68.3925 5.59611C64.2901 8.08674 61.5607 11.6074 60.1075 16.1613C59.9507 16.6486 60.2233 17.1711 60.7091 17.3264C61.1986 17.4823 61.721 17.2126 61.8742 16.7253Z" fill="#C4EF17"/>
<path fill-rule="evenodd" clip-rule="evenodd" d="M20.3604 10.0605C19.6199 10.8889 18.952 11.7848 18.379 12.7421C18.1235 13.1683 17.6704 14.0763 17.584 14.8625C17.4889 15.7 17.7566 16.4153 18.4814 16.8066C19.4441 17.3256 20.224 17.2935 20.8321 17.0094C21.4177 16.7365 21.8841 16.1831 22.1885 15.4332C22.7697 13.9998 22.7434 11.7862 22.4895 10.517C23.2768 9.74422 24.1364 9.0471 25.0533 8.43118C31.8828 3.84404 41.6826 5.84349 49.0794 13.1425C51.6681 15.6981 52.8127 20.9576 53.3354 26.6145C54.1502 35.4225 53.3154 45.2165 53.162 48.0882C53.1257 48.7973 53.1819 49.2202 53.2168 49.3053C53.3808 49.7234 53.6858 49.8386 53.8998 49.8848C54.2099 49.9482 54.4597 49.8951 54.6625 49.7963C54.9367 49.6607 55.1655 49.4156 55.279 49.0315C55.3399 48.8193 55.3622 48.5223 55.3627 48.2052C55.3608 47.9851 55.3223 47.7437 55.3707 47.5873C55.6851 46.5853 56.0583 45.6086 56.4242 44.6246C57.6459 41.3166 59.196 38.2268 60.9091 35.1448C66.3515 25.3518 71.6374 14.9928 80.3427 7.64565C80.7331 7.31596 80.7848 6.73035 80.4533 6.3392C80.1255 5.94815 79.5406 5.89864 79.1465 6.22861C70.2669 13.7209 64.8393 24.257 59.2881 34.244C57.8314 36.8657 56.4894 39.494 55.3595 42.25C55.5901 37.3305 55.7197 30.5161 54.9695 24.4651C54.3027 19.0835 52.8974 14.3072 50.3811 11.8228C42.2784 3.82685 31.4982 1.8667 24.0196 6.89208C23.2196 7.43005 22.4554 8.02456 21.7418 8.67227C18.0706 1.63372 9.90938 -1.35464 2.55211 1.78396C2.07965 1.98472 1.86198 2.52983 2.06167 3.00042C2.26508 3.47109 2.80864 3.69022 3.28111 3.48946C9.91089 0.661362 17.2778 3.51742 20.3604 10.0605ZM20.8398 12.3982C20.5289 12.8148 20.2398 13.2476 19.9689 13.6956C19.8257 13.9362 19.5766 14.3992 19.4651 14.8557C19.4401 14.9627 19.4322 15.1309 19.4303 15.2088C19.683 15.3412 19.8816 15.407 20.0468 15.3292C20.2532 15.2334 20.363 14.9987 20.4697 14.7362C20.7385 14.0773 20.8421 13.1977 20.8398 12.3982Z" fill="#C4EF17"/>
</svg>
