<svg width="66" height="47" viewBox="0 0 66 47" fill="none" xmlns="http://www.w3.org/2000/svg">
<g opacity="0.5">
<path fill-rule="evenodd" clip-rule="evenodd" d="M42.7579 41.4251C47.988 42.5573 53.406 43.3315 58.0861 46.0897C58.3653 46.253 58.7243 46.1617 58.8898 45.8829C59.0531 45.6037 58.9618 45.2448 58.6831 45.0792C53.8933 42.2571 48.3577 41.4365 43.0059 40.2787C42.6898 40.2086 42.3764 40.4113 42.3087 40.7279C42.2386 41.044 42.4417 41.3551 42.7579 41.4251Z" fill="#C4EF17"/>
<path fill-rule="evenodd" clip-rule="evenodd" d="M43.7457 33.7066C45.6719 32.513 47.6755 31.7261 49.9433 31.5801C50.2672 31.5595 50.5116 31.2803 50.4922 30.9575C50.4705 30.6344 50.1903 30.389 49.8687 30.4101C47.4027 30.5686 45.2234 31.4128 43.1294 32.7096C42.8532 32.8798 42.7673 33.2414 42.9391 33.5169C43.1086 33.7917 43.4719 33.8772 43.7457 33.7066Z" fill="#C4EF17"/>
<path fill-rule="evenodd" clip-rule="evenodd" d="M42.3377 16.3817C43.5813 13.9512 45.4455 12.2205 47.9905 11.2C48.2906 11.0795 48.4371 10.7379 48.3155 10.4374C48.1962 10.1374 47.8541 9.99117 47.554 10.1117C44.7374 11.2418 42.6708 13.1563 41.2938 15.8474C41.1456 16.1352 41.2617 16.4893 41.5488 16.6364C41.8381 16.7842 42.1918 16.6699 42.3377 16.3817Z" fill="#C4EF17"/>
<path fill-rule="evenodd" clip-rule="evenodd" d="M17.126 7.93559C16.5785 8.37597 16.0692 8.86593 15.6128 9.40398C15.4094 9.64348 15.033 10.1632 14.8978 10.6447C14.7519 11.1574 14.8451 11.6314 15.2569 11.9504C15.8039 12.3736 16.2938 12.4342 16.7025 12.3197C17.096 12.2099 17.4442 11.9129 17.7116 11.4764C18.2222 10.6422 18.4345 9.2584 18.4072 8.44034C18.9782 8.03956 19.5865 7.69342 20.2221 7.40387C24.9569 5.24748 30.8643 7.5072 34.7251 12.825C36.0762 14.6868 36.247 18.0864 35.9887 21.6697C35.5872 27.2491 34.0547 33.2732 33.6624 35.049C33.5665 35.4877 33.5579 35.7573 33.5709 35.814C33.63 36.0918 33.8084 36.1951 33.9371 36.2461C34.124 36.3176 34.2854 36.3103 34.4221 36.2696C34.6072 36.2133 34.7752 36.0841 34.8857 35.8562C34.9457 35.7301 34.9902 35.5471 35.0233 35.3493C35.0448 35.2118 35.0458 35.0572 35.0921 34.9646C35.3918 34.372 35.7255 33.8011 36.0554 33.225C37.1593 31.2874 38.4456 29.5199 39.8327 27.774C44.2398 22.2264 48.6076 16.3096 54.7977 12.625C55.0753 12.4597 55.1681 12.0996 55.0017 11.8214C54.8376 11.5435 54.4777 11.4522 54.1978 11.6174C47.884 15.3745 43.4094 21.3872 38.9145 27.0445C37.7348 28.5297 36.6261 30.0309 35.6365 31.6336C36.2885 28.5882 37.0732 24.3501 37.2303 20.4975C37.3702 17.0711 36.9868 13.946 35.6736 12.1362C31.4443 6.31058 24.9212 3.97411 19.7362 6.33687C19.1816 6.58986 18.6434 6.88183 18.1312 7.21221C16.5679 2.44172 11.7849 -0.265711 6.87057 0.932442C6.55506 1.00889 6.36295 1.32649 6.43893 1.64071C6.51721 1.95537 6.8337 2.14823 7.1492 2.07178C11.5776 0.992205 15.8787 3.53505 17.126 7.93559ZM17.1836 9.44358C16.9466 9.6714 16.7216 9.91155 16.5063 10.1631C16.392 10.2984 16.1889 10.5615 16.0721 10.8348C16.0455 10.899 16.0232 11.0031 16.0139 11.0515C16.1579 11.1602 16.275 11.2218 16.3861 11.1903C16.5248 11.1519 16.6175 11.0168 16.7112 10.864C16.947 10.4807 17.1025 9.94264 17.1836 9.44358Z" fill="#C4EF17"/>
</g>
</svg>
