<svg width="48" height="48" viewBox="0 0 48 48" fill="none" xmlns="http://www.w3.org/2000/svg">
<g filter="url(#filter0_d_11398_3241)">
<path d="M4 13.4167C4 8.67091 4 6.29803 4.93822 4.49188C5.72885 2.96985 6.96985 1.72885 8.49188 0.938221C10.298 0 12.6709 0 17.4167 0H30.5833C35.3291 0 37.702 0 39.5081 0.938221C41.0301 1.72885 42.2711 2.96985 43.0618 4.49188C44 6.29803 44 8.67091 44 13.4167V26.5833C44 31.3291 44 33.702 43.0618 35.5081C42.2711 37.0301 41.0301 38.2711 39.5081 39.0618C37.702 40 35.3291 40 30.5833 40H17.4167C12.6709 40 10.298 40 8.49188 39.0618C6.96985 38.2711 5.72885 37.0301 4.93822 35.5081C4 33.702 4 31.3291 4 26.5833V13.4167Z" fill="url(#paint0_linear_11398_3241)"/>
<path fill-rule="evenodd" clip-rule="evenodd" d="M25.1616 5.49367C28.7022 5.66768 32.0014 7.12772 34.5212 9.64927C37.2091 12.3388 38.6885 15.9139 38.6871 19.7159C38.6839 27.5616 32.2968 33.9452 24.4506 33.9452H24.4447C22.062 33.9444 19.7208 33.3469 17.6414 32.2133L10.0944 34.192L12.1141 26.8183C10.8683 24.6604 10.2127 22.2126 10.2137 19.7046C10.2169 11.8591 16.6034 5.47607 24.4504 5.47607L25.1616 5.49367ZM17.991 29.6373L18.4232 29.8935C20.2399 30.9711 22.3224 31.5413 24.4458 31.5421H24.4506C30.9725 31.5421 36.2807 26.2364 36.2833 19.7151C36.2846 16.5549 35.0549 13.5834 32.8209 11.3479C30.5867 9.11232 27.6158 7.88043 24.4553 7.87941C17.9283 7.87941 12.62 13.1845 12.6174 19.7054C12.6165 21.9402 13.2421 24.1166 14.4266 25.9996L14.7079 26.4471L13.5126 30.8114L17.991 29.6373ZM31.6228 23.0996C31.5339 22.9512 31.2968 22.8623 30.9411 22.6843C30.5854 22.5063 28.8365 21.6462 28.5104 21.5274C28.1843 21.4089 27.9472 21.3497 27.7101 21.7055C27.473 22.0614 26.7912 22.8623 26.5837 23.0996C26.3762 23.3369 26.1687 23.3666 25.813 23.1886C25.4573 23.0107 24.3111 22.6352 22.9524 21.4239C21.8949 20.4811 21.181 19.3168 20.9734 18.9609C20.766 18.605 20.9513 18.4125 21.1294 18.2352C21.2894 18.0759 21.4852 17.8199 21.663 17.6123C21.8409 17.4048 21.9001 17.2564 22.0188 17.0192C22.1373 16.7818 22.078 16.5743 21.9891 16.3963C21.9002 16.2183 21.1888 14.4682 20.8924 13.7563C20.6035 13.063 20.3103 13.1569 20.0919 13.1459C19.8847 13.1357 19.6473 13.1334 19.4102 13.1334C19.173 13.1334 18.7877 13.2223 18.4616 13.5784C18.1355 13.9342 17.2166 14.7945 17.2166 16.5444C17.2166 18.2946 18.4913 19.9851 18.6691 20.2224C18.847 20.4598 21.1775 24.0509 24.7459 25.5911C25.5946 25.9575 26.2572 26.1762 26.7738 26.3401C27.626 26.6107 28.4014 26.5725 29.0143 26.4809C29.6978 26.3789 31.119 25.6208 31.4154 24.7904C31.7118 23.9597 31.7118 23.2479 31.6228 23.0996Z" fill="#F2F5E6"/>
</g>
<defs>
<filter id="filter0_d_11398_3241" x="0" y="0" width="48" height="48" filterUnits="userSpaceOnUse" color-interpolation-filters="sRGB">
<feFlood flood-opacity="0" result="BackgroundImageFix"/>
<feColorMatrix in="SourceAlpha" type="matrix" values="0 0 0 0 0 0 0 0 0 0 0 0 0 0 0 0 0 0 127 0" result="hardAlpha"/>
<feOffset dy="4"/>
<feGaussianBlur stdDeviation="2"/>
<feComposite in2="hardAlpha" operator="out"/>
<feColorMatrix type="matrix" values="0 0 0 0 0 0 0 0 0 0 0 0 0 0 0 0 0 0 0.25 0"/>
<feBlend mode="normal" in2="BackgroundImageFix" result="effect1_dropShadow_11398_3241"/>
<feBlend mode="normal" in="SourceGraphic" in2="effect1_dropShadow_11398_3241" result="shape"/>
</filter>
<linearGradient id="paint0_linear_11398_3241" x1="24" y1="40" x2="24" y2="0" gradientUnits="userSpaceOnUse">
<stop stop-color="#25CF43"/>
<stop offset="1" stop-color="#61FD7D"/>
</linearGradient>
</defs>
</svg>
