<svg width="32" height="24" viewBox="0 0 32 24" fill="none" xmlns="http://www.w3.org/2000/svg">
<path d="M29.6388 0.203288C29.4989 0.0699073 29.3075 -0.00237161 29.1091 0.00433468L25.8153 0.110145C25.4208 0.122812 25.1122 0.438008 25.1255 0.814305C25.1388 1.1906 25.4685 1.48568 25.8638 1.47301L26.5317 1.4514L26.6528 1.5669L25.4739 2.46405L20.4528 6.28589L17.8544 4.48414L13.3919 1.3903C13.0364 1.14366 12.5583 1.1295 12.1864 1.35453L1.5669 7.78735C1.0669 8.08988 0.919244 8.72176 1.23643 9.19866C1.44034 9.50566 1.78799 9.67331 2.1419 9.67331C2.33877 9.67331 2.53721 9.6219 2.71534 9.51385L5.69659 7.70837L12.7192 3.45435L15.2153 5.18457L19.8513 8.39837C20.2419 8.66886 20.7731 8.65768 21.1497 8.37006L28.1763 3.02142L28.3294 3.16747L28.3083 3.80382C28.295 4.18012 28.6044 4.49531 28.9981 4.50798C29.006 4.50798 29.0146 4.50873 29.0231 4.50873C29.4067 4.50873 29.7239 4.21812 29.7364 3.85002L29.8474 0.708495C29.8544 0.519229 29.7786 0.336669 29.6388 0.203288Z" fill="#6B7FFF"/>
<path d="M31.2852 22.6424H30.5727V9.72459C30.5727 8.91313 29.8805 8.25293 29.0297 8.25293H26.7516C25.9008 8.25293 25.2086 8.91313 25.2086 9.72459V22.6416H23.1648V14.4302C23.1648 13.6187 22.4727 12.9585 21.6219 12.9585H19.3438C18.493 12.9585 17.8008 13.6187 17.8008 14.4302V22.6416H15.757V10.0748C15.757 9.2626 15.0648 8.60315 14.2141 8.60315H11.9359C11.0852 8.60315 10.393 9.26334 10.393 10.0748V22.6416H8.34922V18.4592C8.34922 17.6477 7.65703 16.9875 6.80625 16.9875H4.52812C3.67734 16.9875 2.98516 17.6477 2.98516 18.4592V22.6416H0.714844C0.320312 22.6416 0 22.9464 0 23.3235C0 23.6997 0.320312 24.0045 0.714844 24.0045H31.2852C31.6797 24.0045 32 23.6997 32 23.3235C32 22.9472 31.6797 22.6424 31.2852 22.6424Z" fill="#6B7FFF"/>
</svg>
