<svg width="119" height="45" viewBox="0 0 119 45" fill="none" xmlns="http://www.w3.org/2000/svg">
<g clip-path="url(#clip0_97_873)">
<path d="M41.252 31.4782C43.9595 30.0043 46.4142 27.8486 48.9766 24.7009C51.2073 21.9613 57.9368 11.4483 57.9368 11.4483L65.8688 23.7863H77.4246C75.7288 21.2469 65.7112 6.24685 63.9449 3.3971C62.3444 0.816803 59.1766 -0.52642 56.4151 0.196226C54.6654 0.653493 53.3385 1.57211 52.3517 2.99291C52.1817 3.24195 51.5763 4.12791 50.7098 5.39764C47.3927 10.2724 40.4849 20.4181 39.3612 21.847C37.3917 24.3497 34.6137 25.6889 31.3215 25.7134C24.7537 25.7665 10.7183 25.7297 10.5773 25.7297H10.341V20.6875H10.5773C11.361 20.6793 29.7832 20.5365 31.0354 20.6671C32.3746 20.8059 33.349 21.9491 33.3573 23.3821V23.8353C36.1146 23.2229 39.0627 20.4875 39.8671 17.7806L38.6605 17.0539L39.042 16.862C39.1498 16.8089 39.2161 16.7762 39.2617 16.7477C42.16 14.8043 43.3707 12.0525 42.8607 8.56585C42.5083 6.14887 41.2561 4.25039 39.1415 2.91533C37.0559 1.60069 34.5059 0.88621 31.5661 0.788224C28.4563 0.686155 8.69073 0.661659 6.99073 0.657576L0.0953659 9.14152C3.31293 9.14152 21.3661 9.14968 30.3263 9.15377H30.3761C30.7037 9.15377 31.0354 9.15377 31.3671 9.19051C31.9061 9.25175 32.4659 9.61103 32.8556 10.154C33.2246 10.6603 33.3739 11.2237 33.2702 11.6973C32.9676 13.0854 32.1093 13.7877 30.7202 13.7877H30.3885C26.0971 13.7877 2.62463 13.9428 0 13.9592V33.7809L32.8224 33.6012C34.0042 33.5931 35.2729 33.5482 36.5376 33.246C38.2873 32.8255 39.8256 32.2498 41.2437 31.4782H41.252Z" fill="#F4F4F4"/>
<path d="M116.603 15.5146C115.057 14.155 113.079 13.7998 111.188 13.5508C110.376 13.4446 105.379 13.2078 100.545 12.9792C95.4156 12.7383 90.5726 12.5056 89.7973 12.3994C89.0136 12.2892 88.3585 11.7258 88.0475 10.8929C87.72 10.011 87.8651 9.07201 88.4331 8.44326C88.7483 8.09215 89.25 7.80227 89.7102 7.70429C91.0163 7.42666 93.2222 7.35725 94.1095 7.34092C96.9953 7.28785 104.745 7.45524 105.802 7.56547C107.328 7.72878 108.083 8.55758 108.041 10.0192L108.058 10.6194H117.756L117.735 10.1498C117.715 9.76199 117.698 9.36596 117.686 8.97402C117.648 8.01866 117.611 7.02655 117.458 6.07935C117.113 3.94816 116.085 2.50695 114.319 1.66999C112.639 0.877939 110.732 0.424754 108.485 0.277775C106.018 0.118548 89.9797 -0.138665 84.7885 0.620726C83.2751 0.841194 81.969 1.40461 80.9075 2.29873C79.5392 3.45007 78.7929 5.03417 78.4902 7.44299C78.1295 10.2927 78.2 12.5913 78.7017 14.6776C78.9878 15.8698 79.419 16.7843 80.0534 17.5437C81.3512 19.1033 83.1258 19.6177 85.3939 19.9076C86.19 20.0097 87.0109 20.0423 87.8112 20.0709C88.0973 20.0832 88.3834 20.0913 88.6653 20.1077C92.5795 20.2996 104.538 20.7527 106.532 20.8181C108.219 20.8711 109.045 21.5285 109.285 23.0146C109.434 23.9414 109.26 24.7947 108.767 25.55L108.696 25.6561H64.5958L64.5253 25.5377C62.5765 22.2429 58.8822 15.9841 57.9575 14.4122C57.4019 15.437 55.8429 18.3113 55.0468 19.6259C53.0856 22.8635 51.0953 25.5295 48.9558 27.7751C46.3685 30.4901 43.9222 32.3069 41.2644 33.4909C41.1234 33.5521 40.9285 33.6338 40.7129 33.7236C46.7997 33.7359 74.8 33.793 88.997 33.7849C89.7185 33.7849 90.44 33.7644 91.1614 33.744C91.8912 33.7236 92.6209 33.7032 93.3507 33.7032H93.3631C94.1053 33.7032 94.8641 33.7236 95.5939 33.744C96.2573 33.7644 96.9207 33.7808 97.5841 33.7849C98.8197 33.793 100.055 33.7889 101.295 33.7849H103.136C103.994 33.7849 104.853 33.7849 105.711 33.793C107.954 33.8134 110.558 33.7808 113.087 33.201C114.978 32.7682 116.297 31.9884 117.238 30.7555C118.366 29.2775 118.643 27.5301 118.851 25.7214C119.104 23.5127 119.029 21.3407 118.635 19.2625C118.332 17.6784 117.669 16.4536 116.608 15.5187H116.603V15.5146Z" fill="#F4F4F4"/>
<path d="M3.72759 44.7632H0.157593V35.9404H3.72759C5.12076 35.9404 6.77515 36.4263 6.77515 38.2064C6.77515 39.178 6.18223 39.8272 5.30735 40.113V40.1375C6.3315 40.313 7.14418 41.0357 7.14418 42.1952C7.14418 44.1141 5.43588 44.7632 3.72759 44.7632ZM3.30881 37.6348H2.24735V39.4557H3.41247C4.22101 39.4557 4.68954 39.1209 4.68954 38.4962C4.68954 37.8716 4.22101 37.6348 3.30881 37.6348ZM3.44979 41.0234H2.24735V43.0403H3.46223C4.14637 43.0403 4.97979 42.8525 4.97979 41.9951C4.97979 41.2602 4.37028 41.0234 3.44979 41.0234Z" fill="#F4F4F4"/>
<path d="M8.57043 44.7632V35.9404H14.5951V37.745H10.6602V39.4026H14.3795V41.1092H10.6602V42.9423H14.8231V44.7632H8.57043Z" fill="#F4F4F4"/>
<path d="M20.0849 37.7613V44.7632H17.9205V37.7613H15.3912V35.9404H22.6142V37.7613H20.0849Z" fill="#F4F4F4"/>
<path d="M28.9166 44.7632L28.22 43.0322H24.7536L24.0944 44.7632H21.7393L25.4958 35.9404H27.598L31.3173 44.7632H28.9124H28.9166ZM26.5117 38.2962L25.3715 41.3256H27.6229L26.5076 38.2962H26.5117Z" fill="#F4F4F4"/>
<path d="M37.7608 44.7632L34.1535 38.9943H34.1162L34.1659 44.7632H32.0637V35.9404H34.5308L38.1257 41.6971H38.163L38.1132 35.9404H40.2154V44.7632H37.7608Z" fill="#F4F4F4"/>
<path d="M46.4142 41.0276V44.7633H44.2498V41.0276L40.8829 35.9446H43.5034L45.4149 39.2067L47.3263 35.9446H49.8556L46.4142 41.0276Z" fill="#F4F4F4"/>
<path d="M55.2583 38.2349C54.8893 37.7736 54.2217 37.4756 53.662 37.4756C53.1022 37.4756 52.4098 37.6634 52.4098 38.3615C52.4098 38.9453 52.9405 39.1331 53.7905 39.3944C55.0054 39.7823 56.5727 40.2926 56.5727 42.0482C56.5727 44.0773 54.9142 44.9878 53.1437 44.9878C51.8666 44.9878 50.573 44.5265 49.7893 43.7181L51.2074 42.2973C51.6386 42.8321 52.4347 43.2322 53.1437 43.2322C53.803 43.2322 54.3835 42.9832 54.3835 42.2728C54.3835 41.5991 53.6993 41.3868 52.5217 41.0153C51.3815 40.656 50.233 40.0803 50.233 38.4881C50.233 36.5324 52.0283 35.72 53.6993 35.72C54.711 35.72 55.8513 36.0956 56.6349 36.806L55.2542 38.239L55.2583 38.2349Z" fill="#F4F4F4"/>
<path d="M61.2415 41.4358H60.1676V44.7632H58.0032V35.9404H61.2912C63.2524 35.9404 64.7949 36.6386 64.7949 38.6555C64.7949 40.6723 63.1115 41.4317 61.2373 41.4317H61.2415V41.4358ZM61.1171 37.6593H60.1676V39.7415H61.0798C61.8883 39.7415 62.6346 39.5047 62.6346 38.6718C62.6346 37.8389 61.8883 37.6633 61.1171 37.6633V37.6593Z" fill="#F4F4F4"/>
<path d="M70.5542 45.0001C67.7596 45.0001 65.6823 43.1057 65.6823 40.3172C65.6823 37.5287 67.7554 35.7078 70.5542 35.7078C73.353 35.7078 75.4386 37.4878 75.4386 40.3172C75.4386 43.1465 73.3654 45.0001 70.5542 45.0001ZM70.5542 37.6226C69.0366 37.6226 68.0001 38.7698 68.0001 40.3131C68.0001 41.8564 69.0491 43.0526 70.5542 43.0526C72.0593 43.0526 73.1249 41.9054 73.1249 40.3131C73.1249 38.7208 72.0759 37.6226 70.5542 37.6226Z" fill="#F4F4F4"/>
<path d="M81.6622 44.7632L79.7258 41.2602H78.9919V44.7632H76.8649V35.9404H80.2814C82.0022 35.9404 83.7105 36.5896 83.7105 38.6065C83.7105 39.7905 83.0014 40.6356 81.8488 40.9867L84.1915 44.7632H81.6622ZM80.1322 37.6633H78.9795V39.7211H80.0036C80.7002 39.7211 81.571 39.5455 81.571 38.6514C81.571 37.8307 80.7749 37.6674 80.128 37.6674L80.1322 37.6633Z" fill="#F4F4F4"/>
<path d="M88.939 37.7613V44.7632H86.7746V37.7613H84.2454V35.9404H91.4724V37.7613H88.939Z" fill="#F4F4F4"/>
<path d="M97.1861 38.2349C96.8212 37.7736 96.1495 37.4756 95.5897 37.4756C95.03 37.4756 94.3375 37.6634 94.3375 38.3615C94.3375 38.9453 94.8683 39.1331 95.7183 39.3944C96.9331 39.7823 98.5005 40.2926 98.5005 42.0482C98.5005 44.0773 96.8419 44.9878 95.0714 44.9878C93.7944 44.9878 92.5007 44.5265 91.717 43.7181L93.1351 42.2973C93.5663 42.8321 94.3624 43.2322 95.0714 43.2322C95.7307 43.2322 96.3112 42.9832 96.3112 42.2728C96.3112 41.5991 95.627 41.3868 94.4495 41.0153C93.3092 40.656 92.1607 40.0803 92.1607 38.4881C92.1607 36.5324 93.9561 35.72 95.627 35.72C96.6388 35.72 97.779 36.0956 98.5627 36.806L97.1819 38.239H97.1861V38.2349Z" fill="#F4F4F4"/>
<path d="M100.918 44.89C100.221 44.89 99.6283 44.3674 99.6283 43.6815C99.6283 42.9956 100.209 42.4485 100.918 42.4485C101.627 42.4485 102.182 42.9833 102.182 43.6692C102.182 44.3551 101.602 44.89 100.918 44.89Z" fill="#F4F4F4"/>
<path d="M103.725 44.7632V35.9404H109.749V37.745H105.815V39.4026H109.534V41.1092H105.815V42.9423H109.978V44.7632H103.725Z" fill="#F4F4F4"/>
<path d="M115.14 45C112.785 45 111.317 43.5547 111.317 41.4358V35.9404H113.469V41.2602C113.469 42.2074 113.937 43.0811 115.152 43.0811C116.367 43.0811 116.836 42.2074 116.836 41.2602V35.9404H119V41.4358C119 43.5547 117.482 45 115.14 45Z" fill="#F4F4F4"/>
</g>
<defs>
<clipPath id="clip0_97_873">
<rect width="119" height="45" fill="white"/>
</clipPath>
</defs>
</svg>
