<svg width="47" height="61" viewBox="0 0 47 61" fill="none" xmlns="http://www.w3.org/2000/svg">
<path d="M26.1914 23.8168C26.6108 22.5587 28.3874 22.5587 28.8068 23.8168L31.2658 31.2017C31.8071 32.825 32.7191 34.3 33.9294 35.5097C35.1398 36.7194 36.6152 37.6305 38.2389 38.1709L45.6199 40.63C46.878 41.0493 46.878 42.826 45.6199 43.2453L38.2351 45.7044C36.6117 46.2457 35.1367 47.1576 33.9271 48.368C32.7174 49.5783 31.8062 51.0538 31.2658 52.6775L28.8068 60.0585C28.7164 60.334 28.5413 60.5739 28.3064 60.7439C28.0716 60.914 27.789 61.0056 27.4991 61.0056C27.2091 61.0056 26.9266 60.914 26.6918 60.7439C26.4569 60.5739 26.2818 60.334 26.1914 60.0585L23.7323 52.6737C23.1915 51.0507 22.2801 49.576 21.0704 48.3663C19.8608 47.1567 18.3861 46.2453 16.7631 45.7044L9.37828 43.2453C9.10279 43.1549 8.86288 42.9798 8.6928 42.745C8.52272 42.5102 8.43114 42.2276 8.43114 41.9377C8.43114 41.6477 8.52272 41.3652 8.6928 41.1303C8.86288 40.8955 9.10279 40.7204 9.37828 40.63L16.7631 38.1709C18.3861 37.63 19.8608 36.7186 21.0704 35.509C22.2801 34.2993 23.1915 32.8246 23.7323 31.2017L26.1914 23.8168ZM11.4637 4.3769C11.5184 4.2118 11.6237 4.06812 11.7647 3.96629C11.9057 3.86446 12.0752 3.80965 12.2491 3.80965C12.423 3.80965 12.5925 3.86446 12.7335 3.96629C12.8745 4.06812 12.9798 4.2118 13.0345 4.3769L14.5099 8.80703C15.1695 10.7819 16.7173 12.3298 18.6922 12.9893L23.1223 14.4648C23.2874 14.5194 23.4311 14.6248 23.533 14.7657C23.6348 14.9067 23.6896 15.0762 23.6896 15.2502C23.6896 15.4241 23.6348 15.5936 23.533 15.7346C23.4311 15.8755 23.2874 15.9809 23.1223 16.0355L18.6922 17.511C17.7182 17.8355 16.8332 18.3824 16.1072 19.1083C15.3813 19.8342 14.8344 20.7193 14.5099 21.6933L13.0345 26.1234C12.9798 26.2885 12.8745 26.4322 12.7335 26.534C12.5925 26.6358 12.423 26.6907 12.2491 26.6907C12.0752 26.6907 11.9057 26.6358 11.7647 26.534C11.6237 26.4322 11.5184 26.2885 11.4637 26.1234L9.98828 21.6933C9.66377 20.7193 9.11688 19.8342 8.39094 19.1083C7.665 18.3824 6.77997 17.8355 5.80597 17.511L1.37584 16.0355C1.21074 15.9809 1.06707 15.8755 0.965236 15.7346C0.863404 15.5936 0.808594 15.4241 0.808594 15.2502C0.808594 15.0762 0.863404 14.9067 0.965236 14.7657C1.06707 14.6248 1.21074 14.5194 1.37584 14.4648L5.80597 12.9893C6.77997 12.6648 7.665 12.1179 8.39094 11.392C9.11688 10.6661 9.66377 9.78102 9.98828 8.80703L11.4637 4.3769ZM38.4143 0.377588C38.4519 0.269032 38.5224 0.1749 38.6161 0.108279C38.7097 0.0416584 38.8217 0.00585937 38.9366 0.00585938C39.0515 0.00585938 39.1635 0.0416584 39.2571 0.108279C39.3507 0.1749 39.4213 0.269032 39.4589 0.377588L40.4425 3.32846C40.881 4.64759 41.9142 5.68078 43.2333 6.11921L46.1842 7.10284C46.2927 7.14047 46.3868 7.211 46.4535 7.30461C46.5201 7.39822 46.5559 7.51026 46.5559 7.62515C46.5559 7.74005 46.5201 7.85209 46.4535 7.94569C46.3868 8.0393 46.2927 8.10983 46.1842 8.14746L43.2333 9.13109C42.5832 9.34734 41.9925 9.71218 41.5081 10.1966C41.0236 10.6811 40.6588 11.2718 40.4425 11.9218L39.4589 14.8727C39.4213 14.9813 39.3507 15.0754 39.2571 15.142C39.1635 15.2086 39.0515 15.2444 38.9366 15.2444C38.8217 15.2444 38.7097 15.2086 38.6161 15.142C38.5224 15.0754 38.4519 14.9813 38.4143 14.8727L37.4307 11.9218C37.2144 11.2718 36.8496 10.6811 36.3651 10.1966C35.8807 9.71218 35.29 9.34734 34.6399 9.13109L31.6928 8.14746C31.5843 8.10983 31.4902 8.0393 31.4235 7.94569C31.3569 7.85209 31.3211 7.74005 31.3211 7.62515C31.3211 7.51026 31.3569 7.39822 31.4235 7.30461C31.4902 7.211 31.5843 7.14047 31.6928 7.10284L34.6437 6.11921C35.9628 5.68078 36.996 4.64759 37.4345 3.32846L38.4143 0.381401V0.377588Z" fill="#242423"/>
<path d="M38.8913 0.531576L38.8887 0.539146L37.9089 3.48617C37.4208 4.95493 36.2702 6.10552 34.8014 6.59369L31.8566 7.57525C31.8562 7.5754 31.8557 7.57556 31.8553 7.57573C31.8455 7.57943 31.837 7.58597 31.8309 7.59452C31.8245 7.60347 31.8211 7.61417 31.8211 7.62515C31.8211 7.63613 31.8245 7.64683 31.8309 7.65577C31.837 7.66434 31.8455 7.67089 31.8553 7.67459C31.8558 7.67475 31.8562 7.6749 31.8566 7.67505L34.7977 8.65665C34.7978 8.65667 34.7979 8.65669 34.7979 8.65671C35.5217 8.89751 36.1793 9.30371 36.7187 9.84306C37.258 10.3824 37.6642 11.04 37.905 11.7637C37.905 11.7638 37.9051 11.7639 37.9051 11.764L38.8867 14.7089C38.8869 14.7094 38.887 14.7099 38.8872 14.7103C38.8909 14.7201 38.8974 14.7286 38.906 14.7347C38.9149 14.741 38.9256 14.7444 38.9366 14.7444C38.9476 14.7444 38.9583 14.741 38.9672 14.7347C38.9758 14.7286 38.9823 14.7201 38.986 14.7103C38.9862 14.7098 38.9863 14.7094 38.9865 14.7089L39.9681 11.764C40.2089 11.0402 40.6151 10.3825 41.1545 9.84306C41.6939 9.30366 42.3516 8.89744 43.0755 8.65665L46.0204 7.67505C46.0208 7.67489 46.0213 7.67473 46.0217 7.67456C46.0315 7.67087 46.04 7.66433 46.0461 7.65578L46.4535 7.94569L46.0461 7.65577C46.0525 7.64683 46.0559 7.63613 46.0559 7.62515C46.0559 7.61417 46.0525 7.60347 46.0461 7.59454L46.4535 7.30461L46.0461 7.59452C46.04 7.58598 46.0315 7.57944 46.0217 7.57574C46.0213 7.57557 46.0208 7.57541 46.0204 7.57525L43.0756 6.59369L38.8913 0.531576ZM38.8913 0.531576C38.895 0.52534 38.9 0.519904 38.906 0.515645C38.9149 0.509278 38.9256 0.505859 38.9366 0.505859C38.9476 0.505859 38.9583 0.50928 38.9672 0.515645C38.9758 0.521725 38.9823 0.530213 38.986 0.540025C38.9862 0.540476 38.9863 0.54093 38.9865 0.541387L39.9681 3.48617C40.4562 4.95479 41.6066 6.1053 43.0752 6.59355L38.8913 0.531576ZM14.5099 8.80703L13.0345 4.3769C12.9798 4.2118 12.8745 4.06812 12.7335 3.96629C12.5925 3.86446 12.423 3.80965 12.2491 3.80965C12.0752 3.80965 11.9057 3.86446 11.7647 3.96629L14.5099 8.80703ZM14.5099 8.80703C15.1695 10.7819 16.7173 12.3298 18.6922 12.9893L14.5099 8.80703ZM30.7915 31.3596L30.7915 31.3598C31.3573 33.0568 32.3107 34.5988 33.576 35.8633C34.8412 37.1279 36.3837 38.0804 38.081 38.6453L45.4618 41.1043C46.264 41.3717 46.2641 42.5034 45.4619 42.7709C45.4619 42.771 45.4618 42.771 45.4618 42.771L38.0771 45.23L38.0769 45.2301C36.3799 45.7959 34.838 46.7492 33.5734 48.0145C32.3088 49.2798 31.3563 50.8222 30.7914 52.5196L28.3324 59.9004L28.3317 59.9025C28.2741 60.078 28.1627 60.2307 28.0131 60.339C27.8636 60.4473 27.6837 60.5056 27.4991 60.5056C27.3145 60.5056 27.1346 60.4473 26.9851 60.339C26.8355 60.2307 26.724 60.078 26.6665 59.9025L26.6658 59.9005L24.2067 52.5157L24.2067 52.5156C23.6413 50.819 22.6885 49.2773 21.424 48.0128C20.1594 46.7482 18.6178 45.7955 16.9212 45.23L16.9211 45.23L9.53625 42.7709L9.53419 42.7703C9.35879 42.7127 9.20604 42.6012 9.09774 42.4517C8.98945 42.3022 8.93114 42.1223 8.93114 41.9377C8.93114 41.753 8.98945 41.5731 9.09774 41.4236C9.20604 41.2741 9.35878 41.1626 9.5342 41.105L9.53625 41.1044L16.9211 38.6453L16.9212 38.6453C18.6178 38.0798 20.1594 37.1271 21.424 35.8625C22.6885 34.598 23.6413 33.0563 24.2067 31.3597L24.2067 31.3596L26.6658 23.975C26.9332 23.1727 28.065 23.1727 28.3324 23.975L30.7915 31.3596ZM11.9381 4.53489L11.9384 4.53407C11.96 4.46875 12.0017 4.41191 12.0574 4.37162C12.1132 4.33133 12.1803 4.30965 12.2491 4.30965C12.3179 4.30965 12.385 4.33133 12.4407 4.37162C12.4965 4.41191 12.5382 4.46875 12.5598 4.53407L12.5601 4.53489L14.0355 8.96502L14.0357 8.96541C14.745 11.0894 16.4099 12.7542 18.5338 13.4636L18.5342 13.4637L22.9644 14.9392L22.9652 14.9394C23.0305 14.9611 23.0873 15.0027 23.1276 15.0585C23.1679 15.1143 23.1896 15.1813 23.1896 15.2502C23.1896 15.319 23.1679 15.386 23.1276 15.4418C23.0873 15.4976 23.0305 15.5392 22.9652 15.5609L22.9644 15.5611L18.5342 17.0366L18.5342 17.0366C17.4865 17.3856 16.5345 17.9739 15.7537 18.7547C14.9728 19.5356 14.3846 20.4876 14.0355 21.5352L14.0355 21.5353L12.5601 25.9654L12.5598 25.9662C12.5382 26.0315 12.4965 26.0884 12.4407 26.1287C12.385 26.169 12.3179 26.1907 12.2491 26.1907C12.1803 26.1907 12.1132 26.169 12.0574 26.1287C12.0017 26.0884 11.96 26.0315 11.9384 25.9662L11.9381 25.9654L10.4627 21.5353L10.4626 21.5352C10.1136 20.4876 9.52534 19.5356 8.7445 18.7547C7.96365 17.9739 7.01168 17.3856 5.96401 17.0366L5.96396 17.0366L1.53384 15.5611L1.53302 15.5609C1.4677 15.5392 1.41085 15.4976 1.37057 15.4418C1.33028 15.386 1.30859 15.319 1.30859 15.2502C1.30859 15.1813 1.33028 15.1143 1.37057 15.0585C1.41086 15.0027 1.4677 14.9611 1.53302 14.9394L1.53384 14.9392L5.96396 13.4637L5.96401 13.4637C7.01168 13.1147 7.96365 12.5264 8.7445 11.7456C9.52534 10.9647 10.1136 10.0127 10.4626 8.96507L10.4627 8.96502L11.9381 4.53489Z" stroke="#6B7FFF" stroke-opacity="0.5"/>
</svg>
