<svg width="372" height="158" viewBox="0 0 372 158" fill="none" xmlns="http://www.w3.org/2000/svg">
<path opacity="0.16" d="M4.00974 153.689C5.23769 146.135 7.53191 138.568 10.3555 131.432C37.1921 63.6215 76.3361 159.806 110.423 142.032C139.858 126.683 142.062 60.1998 184.85 39.7763C226.306 19.9886 244.829 69.4757 279.261 69.5703C304.649 69.6405 311.571 47.1644 328.345 30.776C338.95 20.4147 349.566 16.4822 361.456 9.07683M351.616 35.7352C352.719 28.3445 356.575 21.2252 360.298 14.9868C362.501 11.2945 364.728 7.44896 367.732 4.47471C356.826 7.5778 346.962 8.59478 336.44 5.23942" stroke="url(#paint0_linear_11217_2395)" stroke-width="8" stroke-miterlimit="1.5" stroke-linecap="round" stroke-linejoin="round"/>
<defs>
<linearGradient id="paint0_linear_11217_2395" x1="391.599" y1="-14.0998" x2="0.897549" y2="114.245" gradientUnits="userSpaceOnUse">
<stop stop-color="#C4EF17"/>
<stop offset="1"/>
</linearGradient>
</defs>
</svg>
