<svg width="156" height="80" viewBox="0 0 156 80" fill="none" xmlns="http://www.w3.org/2000/svg">
<path d="M1.87671 35.1723C3.94177 37.5727 4.768 40.7863 5.74778 43.9249C8.96605 54.2305 9.3004 66.8937 4.79237 77.976C12.6593 67.8022 25.6616 57.1165 37.3817 58.3001M154.257 15.103C142.257 8.53245 128.55 8.30252 115.74 12.6907M115.74 12.6907C101.68 17.5069 88.7001 27.8861 80.2445 41.5508C73.3256 52.7319 69.8887 78.0775 87.3679 75.8132C103.057 73.7808 116.008 55.2268 118.789 38.9884C120.76 27.476 119.413 18.7881 115.74 12.6907ZM115.74 12.6907C108.467 0.619834 92.0786 -1.29842 74.2741 5.12114C44.5845 15.8261 23.4346 41.5693 8.40413 70.8241" stroke="url(#paint0_linear_7126_3189)" stroke-width="3" stroke-miterlimit="1.5" stroke-linecap="round" stroke-linejoin="round"/>
<defs>
<linearGradient id="paint0_linear_7126_3189" x1="-3.07999" y1="79.6104" x2="154.736" y2="13.5082" gradientUnits="userSpaceOnUse">
<stop stop-color="#C4EF17" stop-opacity="0.4"/>
<stop offset="1" stop-color="#0A0A09" stop-opacity="0.32"/>
</linearGradient>
</defs>
</svg>
