<svg width="42" height="64" viewBox="0 0 42 64" fill="none" xmlns="http://www.w3.org/2000/svg">
<g clip-path="url(#clip0_11207_2941)">
<path d="M27.3003 31.9004C26.8003 34.1004 28.2003 36.4004 30.5003 36.9004C32.8003 37.4004 35.1003 36.0004 35.6003 33.8004L41.7003 7.60037C42.2003 5.40037 40.8003 3.10037 38.5003 2.60037C36.2003 2.10037 33.9003 3.50037 33.4003 5.70037L27.3003 31.9004Z" fill="#FFDD67"/>
<path d="M28.8992 35.6C31.2992 36.1 33.4992 34.7 34.0992 32.5L40.1992 6.3C40.4992 5.1 40.1992 3.9 39.4992 3C41.5992 3.9 42.2992 5.7 41.8992 7.7L35.7992 33.9C35.2992 36.1 32.9992 37.6 30.6992 37C29.5992 36.8 28.7992 36.2 28.1992 35.4C28.2992 35.4 28.5992 35.5 28.8992 35.6Z" fill="#EBA352"/>
<path d="M35.2003 34.5002C35.2003 34.5002 26.5003 25.9002 11.1003 30.2002C11.1003 30.2002 2.00034 31.8002 2.50034 36.4002C2.50034 36.4002 2.20034 47.8002 6.10034 54.6002C12.0003 64.7002 34.7003 66.3002 40.4003 47.6002C41.6003 43.9002 40.7003 33.9002 35.2003 34.5002Z" fill="#FFDD67"/>
<path d="M19.7008 33.4002C20.1008 35.7002 22.4008 37.1002 24.7008 36.7002C27.0008 36.3002 28.6008 34.1002 28.2008 31.8002L23.2008 5.40018C22.8008 3.10018 20.5008 1.70018 18.2008 2.10018C15.9008 2.50018 14.3008 4.70018 14.8008 7.00018L19.7008 33.4002Z" fill="#FFDD67"/>
<path d="M22.6 36.1C25 35.7 26.5 33.5 26.1 31.2L21.1 4.8C20.8 3.6 20 2.6 19 2C21.2 2 22.8 3.4 23.2 5.4L28.2 31.8C28.6 34.1 27.1 36.3 24.8 36.7C23.7 36.9 22.7 36.7 21.8 36.2C22 36.2 22.3 36.2 22.6 36.1Z" fill="#EBA352"/>
<path d="M1.99916 32.1004C1.69916 29.8004 3.39916 27.7004 5.79916 27.4004H5.89916C8.19916 27.2004 10.3992 28.8004 10.5992 31.2004L11.2992 37.7004C11.5992 40.0004 9.89916 42.1004 7.49916 42.4004H7.39916C4.99916 42.6004 2.89916 41.0004 2.69916 38.6004L1.99916 32.1004Z" fill="#FFDD67"/>
<path d="M10.0988 27.4004C9.79877 25.1004 11.4988 23.0004 13.8988 22.7004H13.9988C16.3988 22.5004 18.4988 24.1004 18.6988 26.5004L19.3988 33.0004C19.6988 35.3004 17.9988 37.4004 15.5988 37.7004H15.4988C13.0988 37.9004 10.9988 36.3004 10.7988 33.9004L10.0988 27.4004Z" fill="#FFDD67"/>
<path d="M6.09961 40.9998C8.49961 40.6998 10.0996 38.6998 9.89961 36.2998L9.19961 29.7998C9.09961 29.1998 8.79961 28.4998 8.49961 27.8998C9.99961 28.5998 10.4996 29.7998 10.6996 31.1998L11.3996 37.6998C11.6996 39.9998 9.99961 42.0998 7.69961 42.2998C5.99961 42.4998 4.39961 41.5998 3.59961 40.2998C4.19961 40.7998 5.09961 41.0998 6.09961 40.9998ZM14.0996 36.2998C16.4996 35.9998 18.1996 33.9998 17.8996 31.6998L17.1996 25.1998C17.0996 24.5998 16.7996 23.7998 16.4996 23.2998C17.8996 24.0998 18.4996 25.2998 18.6996 26.6998L19.3996 33.1998C19.6996 35.4998 17.9996 37.4998 15.5996 37.7998H15.4996C13.7996 37.9998 12.1996 37.0998 11.3996 35.7998C12.1996 36.1998 13.0996 36.3998 14.0996 36.2998ZM31.3996 40.7998C26.5996 38.4998 15.6996 42.4998 17.8996 52.4998C17.8996 42.0998 27.2996 40.2998 31.3996 40.7998Z" fill="#EBA352"/>
<path d="M29.599 30.5001C26.099 28.4001 25.499 31.7001 19.599 31.9001C16.999 32.0001 15.899 37.3001 19.799 39.2001C25.199 41.9001 25.599 38.1001 26.999 39.6001C28.399 41.2001 29.699 41.5001 30.899 43.3001C31.799 44.6001 38.499 42.6001 39.199 39.9001C40.499 34.6001 34.999 33.8001 29.599 30.5001Z" fill="#EBA352"/>
<path d="M30.0003 31.4005C26.4003 29.3005 25.7003 32.6005 19.6003 32.8005C16.9003 32.9005 15.7003 38.4005 19.8003 40.4005C25.4003 43.2005 25.9003 39.2005 27.2003 40.8005C28.7003 42.4005 30.0003 42.8005 31.3003 44.7005C32.2003 46.1005 29.8003 51.3005 29.8003 51.3005C29.8003 51.3005 36.7003 56.2005 38.1003 53.4005C40.7003 48.2005 40.0003 44.2005 39.9003 41.2005C39.7003 34.1005 35.7003 34.8005 30.0003 31.4005Z" fill="#FFDD67"/>
<path d="M36.8992 34.9004C40.6992 36.7004 40.4992 46.6004 37.6992 51.4004C30.5992 63.3004 14.9992 63.1004 7.69922 56.7004C14.4992 64.0004 31.0992 64.7004 38.7992 52.4004C41.8992 47.5004 42.8992 36.1004 36.8992 34.9004Z" fill="#EBA352"/>
<path d="M30.4993 44.8C30.7993 45.2 30.6993 46 30.5993 46.9C30.9993 45.5 31.2993 44.1 30.8993 43.5C29.6993 41.6 28.9993 41.2 27.4993 39.6C26.0993 38.1 25.6993 42 20.0993 39.2C17.9993 38.2 17.2993 36.2 17.4993 34.5C16.6993 36.3 17.0993 39.1 19.7993 40.5C25.3993 43.3 25.8993 39.3 27.1993 40.9C28.5993 42.5 29.2993 42.9 30.4993 44.8Z" fill="#EBA352"/>
</g>
<defs>
<clipPath id="clip0_11207_2941">
<rect width="42" height="64" fill="white"/>
</clipPath>
</defs>
</svg>
