<svg width="56" height="56" viewBox="0 0 56 56" fill="none" xmlns="http://www.w3.org/2000/svg">
<path opacity="0.16" d="M40.6665 28C40.6665 27.4477 40.2188 27 39.6665 27C39.1142 27 38.6665 27.4477 38.6665 28H40.6665ZM27.9998 17.3334C28.5521 17.3334 28.9998 16.8856 28.9998 16.3334C28.9998 15.7811 28.5521 15.3334 27.9998 15.3334V17.3334ZM32.4676 6.11346C33.0088 6.22333 33.5366 5.87364 33.6465 5.33239C33.7564 4.79115 33.4067 4.26331 32.8654 4.15344L32.4676 6.11346ZM51.8465 23.1345C51.7367 22.5933 51.2089 22.2435 50.6677 22.3533C50.1264 22.4631 49.7767 22.9909 49.8865 23.5322L51.8465 23.1345ZM27.3634 27.2052C26.9729 27.5957 26.9729 28.2289 27.3634 28.6194C27.754 29.0099 28.3871 29.0099 28.7776 28.6194L27.3634 27.2052ZM39.4011 17.9959C39.7916 17.6054 39.7916 16.9722 39.4011 16.5817C39.0106 16.1912 38.3774 16.1912 37.9869 16.5817L39.4011 17.9959ZM46.0608 10.1372L45.0974 10.4054C45.1942 10.753 45.4707 11.0215 45.821 11.108L46.0608 10.1372ZM44.77 5.50053L45.7333 5.23234C45.7306 5.22262 45.7278 5.21295 45.7248 5.20332L44.77 5.50053ZM42.9936 4.93852L43.6264 5.71286L43.6264 5.71284L42.9936 4.93852ZM38.9735 17.1829L38.0835 17.6389C38.1849 17.8368 38.3494 17.9952 38.5509 18.0892L38.9735 17.1829ZM51.0375 13.0321L50.2674 12.3942L50.2674 12.3943L51.0375 13.0321ZM50.4575 11.2232L50.7353 10.2625C50.7227 10.2589 50.71 10.2555 50.6973 10.2524L50.4575 11.2232ZM38.6665 28C38.6665 33.891 33.8908 38.6667 27.9998 38.6667V40.6667C34.9954 40.6667 40.6665 34.9956 40.6665 28H38.6665ZM27.9998 38.6667C22.1088 38.6667 17.3332 33.891 17.3332 28H15.3332C15.3332 34.9956 21.0042 40.6667 27.9998 40.6667V38.6667ZM17.3332 28C17.3332 22.109 22.1088 17.3334 27.9998 17.3334V15.3334C21.0042 15.3334 15.3332 21.0044 15.3332 28H17.3332ZM32.8654 4.15344C31.2925 3.83413 29.6651 3.66669 27.9998 3.66669V5.66669C29.5308 5.66669 31.0249 5.82059 32.4676 6.11346L32.8654 4.15344ZM27.9998 3.66669C14.5609 3.66669 3.6665 14.5611 3.6665 28H5.6665C5.6665 15.6657 15.6655 5.66669 27.9998 5.66669V3.66669ZM3.6665 28C3.6665 41.4388 14.5609 52.3334 27.9998 52.3334V50.3334C15.6655 50.3334 5.6665 40.3343 5.6665 28H3.6665ZM27.9998 52.3334C41.4387 52.3334 52.3332 41.4388 52.3332 28H50.3332C50.3332 40.3343 40.3341 50.3334 27.9998 50.3334V52.3334ZM52.3332 28C52.3332 26.3347 52.1656 24.7073 51.8465 23.1345L49.8865 23.5322C50.1792 24.975 50.3332 26.4691 50.3332 28H52.3332ZM28.7776 28.6194L39.4011 17.9959L37.9869 16.5817L27.3634 27.2052L28.7776 28.6194ZM47.0241 9.869L45.7333 5.23234L43.8066 5.76872L45.0974 10.4054L47.0241 9.869ZM45.7248 5.20332C45.29 3.80644 43.564 3.18092 42.3608 4.1642L43.6264 5.71284C43.6466 5.69634 43.6607 5.69223 43.6701 5.69061C43.6818 5.68857 43.6986 5.68873 43.7189 5.69525C43.7595 5.70829 43.7972 5.74007 43.8152 5.79773L45.7248 5.20332ZM42.3608 4.16418C40.6772 5.54002 38.7705 7.26534 37.708 9.47216C36.6084 11.7564 36.4558 14.4622 38.0835 17.6389L39.8635 16.7268C38.5102 14.0858 38.6922 12.0387 39.5101 10.3397C40.3653 8.56335 41.9591 7.07532 43.6264 5.71286L42.3608 4.16418ZM38.5509 18.0892C41.8197 19.6135 44.503 19.3767 46.7275 18.2385C48.8709 17.1417 50.503 15.2455 51.8077 13.6699L50.2674 12.3943C48.9431 13.9933 47.5463 15.5729 45.8165 16.458C44.1677 17.3017 42.1335 17.553 39.3961 16.2765L38.5509 18.0892ZM51.8077 13.67C52.8136 12.4555 52.1794 10.6801 50.7353 10.2625L50.1797 12.1838C50.2385 12.2008 50.2731 12.2391 50.288 12.285C50.2954 12.308 50.2959 12.3281 50.2933 12.343C50.2911 12.3553 50.2858 12.3721 50.2674 12.3942L51.8077 13.67ZM50.6973 10.2524L46.3006 9.16636L45.821 11.108L50.2177 12.194L50.6973 10.2524Z" fill="#C4EF17"/>
</svg>
