<svg width="147" height="148" viewBox="0 0 147 148" fill="none" xmlns="http://www.w3.org/2000/svg">
<g opacity="0.12" clip-path="url(#clip0_9039_5540)">
<path d="M90.9483 85.0147L103.174 60.6406M80.3186 30.9293L100.837 57.4579C102.417 59.4996 104.514 60.8645 107.034 61.4933C108.683 61.9048 109.508 62.1106 110.139 62.3419C117.977 65.2137 119.654 73.3986 116.27 80.1455L114.413 83.8482C111.029 90.5952 103.465 94.1448 96.4767 89.5798C95.9139 89.2122 95.2558 88.6741 93.9396 87.5985C91.9289 85.9544 89.5809 85.0899 87.0001 85.0452L53.4672 84.4626C45.7699 84.3291 41.9211 84.262 39.0446 81.3666C36.1684 78.4714 36.2307 75.3854 36.3545 69.2136C36.6954 52.2666 44.4838 36.7389 57.8634 26.3314C62.7362 22.5415 65.1723 20.6465 69.2128 21.2205C73.2536 21.7947 75.6087 24.8396 80.3186 30.9293ZM58.0164 110.549L61.5704 118.581C80.6588 114.6 81.581 108.598 91.8964 88.0324L87.2904 85.7221C79.5918 96.4065 72.4217 99.6999 64.3391 100.634C59.3605 101.208 55.9974 105.985 58.0164 110.549Z" stroke="#C4EF17" stroke-width="3" stroke-linecap="round" stroke-linejoin="round"/>
</g>
<defs>
<clipPath id="clip0_9039_5540">
<rect width="109.073" height="109.073" fill="white" transform="matrix(-0.893861 -0.448344 -0.448344 0.893861 146.886 49.5173)"/>
</clipPath>
</defs>
</svg>
