<svg width="87" height="87" viewBox="0 0 87 87" fill="none" xmlns="http://www.w3.org/2000/svg">
<g opacity="0.4">
<path d="M31.429 40.401L37.3877 24.868M60.1774 22.952L39.783 24.6124C38.2134 24.7402 36.736 24.3563 35.4163 23.479C34.5526 22.9048 34.1207 22.6178 33.757 22.4284C29.2396 20.0766 24.8607 22.686 23.2112 26.9857L22.3061 29.3453C20.6566 33.645 22.1669 38.5136 27.0981 39.7864C27.4952 39.8889 28.0084 39.9643 29.0344 40.1152C30.6022 40.3455 31.9574 41.0483 33.0388 42.1931L47.0901 57.0675C50.3155 60.482 51.9283 62.1891 54.4162 62.295C56.9038 62.4008 58.2692 61.1038 61 58.5101C68.4982 51.3878 72.2942 41.4924 71.4834 31.1823C71.1879 27.4277 71.0402 25.5504 69.1201 23.9653C67.1997 22.3802 64.8589 22.5707 60.1774 22.952ZM33.4619 65.7438L28.3804 67.4446C22.3255 57.2041 24.6514 54.3205 29.679 41.2146L32.6143 42.3406C30.9643 50.2039 32.4283 54.7899 35.331 58.8168C37.1192 61.2972 36.349 64.7772 33.4619 65.7438Z" stroke="#6B7FFF" stroke-width="2" stroke-linecap="round" stroke-linejoin="round"/>
</g>
</svg>
